<svg xmlns="http://www.w3.org/2000/svg" width="618" height="443" fill="none" viewBox="0 0 618 443"><path fill="#A349A8" fill-rule="evenodd" d="M295.002 356.807c0-11.487 9.32-20.807 20.807-20.807 11.487 0 20.807 9.32 20.807 20.807 0 11.487-9.32 20.807-20.807 20.807-11.487 0-20.807-9.284-20.807-20.807Z" clip-rule="evenodd"/><path fill="#55BAD0" d="M518 20.807c0 11.491 9.316 20.807 20.807 20.807 11.492 0 20.807-9.316 20.807-20.807C559.614 9.316 550.299 0 538.807 0 527.316 0 518 9.316 518 20.807Z"/><path fill="#B7BF46" fill-rule="evenodd" d="M.001 354.807C.001 343.32 9.321 334 20.808 334c11.487 0 20.807 9.32 20.807 20.807 0 11.487-9.32 20.807-20.807 20.807-11.487 0-20.807-9.284-20.807-20.807Z" clip-rule="evenodd"/><circle cx="600.461" cy="425.461" r="15.961" stroke="#FF9D01" stroke-width="3"/><path fill="#E7AB43" d="M223.001 96.5c0 7.456 6.044 13.5 13.5 13.5s13.5-6.044 13.5-13.5-6.044-13.5-13.5-13.5-13.5 6.044-13.5 13.5Z"/><path fill="#3D8AA0" d="m443.141 389.96-.96.281.281.96.96-.281-.281-.96Zm-3.693-12.594.96-.282-.281-.959-.96.281.281.96Zm5.612 12.031.281.96.96-.281-.282-.96-.959.281Zm-3.692-12.594-.282-.96-.959.282.281.959.96-.281Zm12.594-3.692.281.959.96-.281-.282-.96-.959.282Zm-.563-1.92.96-.281-.282-.96-.959.282.281.959Zm-12.594 3.693-.96.281.282.96.959-.282-.281-.959Zm-3.692-12.595.959-.281-.281-.96-.96.282.282.959Zm-1.92.563-.281-.96-.96.282.282.959.959-.281Zm3.693 12.594.281.96.96-.281-.282-.96-.959.281Zm-12.595 3.693-.281-.96-.96.281.281.96.96-.281Zm.563 1.919-.96.281.281.96.96-.281-.281-.96Zm17.246 8.621-3.692-12.595-1.919.563 3.692 12.594 1.919-.562Zm.678-1.241-1.919.562.563 1.92 1.919-.563-.563-1.919Zm-4.37-11.354 3.692 12.595 1.919-.563-3.692-12.594-1.919.562Zm13.272-4.933-12.594 3.692.563 1.92 12.594-3.693-.563-1.919Zm-1.24-.678.562 1.919 1.919-.563-.562-1.919-1.919.563Zm-11.354 4.37 12.594-3.692-.562-1.919-12.594 3.692.562 1.919Zm-4.933-13.273 3.692 12.595 1.919-.563-3.692-12.594-1.919.562Zm-.678 1.241 1.919-.562-.563-1.919-1.919.562.563 1.919Zm4.37 11.354-3.692-12.595-1.919.563 3.692 12.595 1.919-.563Zm-13.273 4.933 12.595-3.692-.563-1.919-12.594 3.692.562 1.919Zm1.241.679-.562-1.92-1.92.563.563 1.919 1.919-.562Zm11.354-4.371-12.595 3.692.563 1.92 12.595-3.693-.563-1.919Z"/><g stroke="#55BAD0" stroke-linejoin="round" stroke-miterlimit="10" stroke-width="2" clip-path="url(#prefix__a)"><path d="m392.787 416.681 1.238-3.804-3.1-1.009a8.285 8.285 0 0 0-.171-2.222l2.912-1.482-1.815-3.566-2.912 1.481a7.934 7.934 0 0 0-1.696-1.446l1.009-3.1-3.803-1.238-1.009 3.1a8.285 8.285 0 0 0-2.222.171l-1.482-2.911-3.567 1.815 1.482 2.911a7.958 7.958 0 0 0-1.446 1.696l-3.1-1.009-1.238 3.804 3.1 1.009a8.285 8.285 0 0 0 .171 2.222l-2.912 1.481 1.815 3.567 2.912-1.481a7.9 7.9 0 0 0 1.696 1.445l-1.009 3.1 3.803 1.238 1.009-3.1a8.285 8.285 0 0 0 2.222-.17l1.482 2.911 3.567-1.815-1.482-2.912a7.924 7.924 0 0 0 1.446-1.695l3.1 1.009Z"/><path d="M382.017 414.227a3 3 0 1 0 1.858-5.704 3 3 0 0 0-1.858 5.704Z"/><path d="m397.12 403.368 5.881-18.067a4 4 0 0 0-2.566-5.042l-36.134-11.761a4 4 0 0 0-5.042 2.566l-11.761 36.134a3.999 3.999 0 0 0 2.566 5.042l20.92 6.809M360.874 375.796l38.036 12.38M363.062 372.302l1.902.619M366.866 373.54l1.902.619M397.295 383.444l1.902.619M372.307 382.672l-9.904 30.429"/><path d="M392.652 397.707a1.003 1.003 0 0 0 1.261-.641l.619-1.902a1.003 1.003 0 0 0-.642-1.26l-17.116-5.571a1.002 1.002 0 0 0-1.26.641l-.619 1.902c-.17.523.118 1.09.641 1.261l17.116 5.57ZM372.396 395.321l1.902.619M371.159 399.125l1.902.619M376.2 396.559l1.902.619M359.99 384.973l4.755 1.548M358.442 389.728l4.755 1.547M356.896 394.482l4.754 1.548M355.348 399.237l4.754 1.547M353.8 403.991l4.754 1.548"/></g><g stroke="#B7BF46" stroke-linejoin="round" stroke-miterlimit="10" stroke-width="2" clip-path="url(#prefix__b)"><path d="m246.239 27.121.381 1.404s.251 3.7-2.557 4.462l1.333 4.914-12.635 3.429-2.106.571-1.524-5.615c-.571-2.106-1.975-1.725-1.975-1.725l-4.212 1.143c-2.106.571-2.677-1.535-2.677-1.535l-.711-2.618c-.827-.409-1.702-.495-2.348-.32-1.404.381-1.785-1.023-1.785-1.023l1.784-7.312-.369-1.362c-1.473-5.426 1.734-11.022 7.16-12.494l5.616-1.524"/><path d="m225.201 16.25-.381-1.404s-.381-1.404-1.784-1.023l-.702.19s-1.404.382-1.023 1.785l1.524 5.616s.381 1.404 1.784 1.023l.702-.19s1.404-.381 1.023-1.785l-.381-1.404M231.695 20.517l-1.523.413c-.738.2-1.505-.24-1.707-.984l-1.554-5.728a1.397 1.397 0 0 1 .982-1.713l1.523-.414c.737-.2 1.504.24 1.706.984l1.557 5.735c.2.738-.24 1.505-.984 1.707ZM236.553 19.199l1.46-.396a1.397 1.397 0 0 0 .982-1.714l-1.554-5.728a1.397 1.397 0 0 0-1.714-.982l-1.46.396-1.404.381 2.286 8.424 1.404-.381ZM242.69 8.49l-2.807.761-.702.19 2.286 8.424.702-.19 2.807-.762M240.323 13.654l3.51-.953M245.478 24.314l.381 1.403M245.096 22.91l-.381-1.404s-.19-.702-.892-.512l-16.847 4.572M231.529 6.243l.381 1.404M234.337 5.48l.381 1.405M237.146 4.719l.38 1.404M224.168 26.328l1.404-.381"/></g><defs><clipPath id="prefix__a"><rect width="48" height="48" fill="#fff" transform="rotate(18.029 -973.613 1317.173)"/></clipPath><clipPath id="prefix__b"><rect width="32.731" height="34.913" fill="#fff" transform="rotate(-15.183 150.458 -780.905)"/></clipPath></defs></svg>