<svg xmlns="http://www.w3.org/2000/svg" width="1650" height="389" fill="none" viewBox="0 0 1650 389"><path stroke="#4A4545" d="M1557.25 64.047c-124.1 40.037-252.22-25.573-376.06-89.067-77.69-39.837-165.74-84.98-223.971-85.183-8.422-.031-19.917.774-34.151 7.289-64.624 29.568 102.132 157.33 212.482 241.876 138.05 105.75 221.49 172.719 198.79 215.163-6.46 12.068-21.37 21.795-43.11 28.12-103.17 29.964-255.68-51.78-538.863-211.172-121.764-68.53-247.663-139.395-358.166-189.218-151.348-68.243-206.729-66.019-223.479-61.954-78.042 19.109-49.627 71.93 2.652 150.333 48.731 73.086 103.944 155.93-45.941 184.116-256.537 48.254-456.962-125.158-465.388-132.559-11.12-9.804-3.276-22.442 17.549-28.233 20.843-5.784 46.731-2.534 57.867 7.269 1.718 1.506 176.608 150.031 361.882 115.207 66.557-12.524 41.576-58.105-7.48-131.693C40.657 7.55-17.366-79.487 134.624-116.684c10.83-2.652 22.003-4.481 33.589-5.518 142.592-12.737 345.471 94.255 650.096 265.703 101.074 56.891 196.55 110.625 277.86 149.476 117.01 55.905 150.82 54.341 153.2 54.212 1.05-.308 1.52-.443 2.22-1.751 14.7-27.462-98.21-113.969-188.95-183.476C901.117 38.212 748.548-78.674 865.592-132.23c28.116-12.868 60.39-19.298 95.868-19.196 93.66.323 185.72 47.522 283.18 97.488 95.53 48.979 203.97 104.474 267.15 84.028 28.98-9.348 45.35-21.08 50.06-35.867 14.54-45.657-80.87-109.573-118.89-130.353-15.26-8.35-13.07-21.389 4.89-29.122 17.99-7.718 44.96-7.248 60.23 1.101 6.62 3.597 161.66 89.096 138.29 162.851-8.46 26.658-39.27 49.259-89.12 65.347Z" clip-rule="evenodd" opacity=".36"/></svg>